<svg width="90" height="90" viewBox="0 0 90 90" fill="none" xmlns="http://www.w3.org/2000/svg">
<path d="M90 43.8C90 68 70.2 87.6 45.8 87.6C38.3 87.6 31 85.7 24.4 82.1L0 90L8 66.5C3.8 59.7 1.6 51.8 1.7 43.9C1.6 19.6 21.4 0 45.8 0C70.2 0 90 19.6 90 43.8ZM45.8 7C25.3 7 8.7 23.5 8.7 43.8C8.7 51.9 11.3 59.3 15.8 65.4L11.2 79.1L25.5 74.6C31.6 78.6 38.7 80.7 45.9 80.7C66.3 80.7 83 64.2 83 43.8C83 23.4 66.3 7 45.8 7ZM68.1 53.9C67.8 53.5 67.1 53.2 66 52.6C64.9 52.1 59.6 49.5 58.6 49.1C57.6 48.7 56.9 48.6 56.2 49.6C55.5 50.7 53.4 53.1 52.8 53.8C52.2 54.5 51.5 54.6 50.5 54.1C49.4 53.6 45.9 52.4 41.8 48.8C38.6 46 36.4 42.4 35.8 41.4C35.2 40.3 35.7 39.7 36.3 39.2C36.8 38.7 37.4 37.9 37.9 37.3C38.4 36.7 38.6 36.2 39 35.5C39.4 34.8 39.2 34.2 38.9 33.6C38.6 33.1 36.5 27.8 35.6 25.6C34.7 23.5 33.8 23.8 33.2 23.8C32.6 23.8 31.8 23.7 31.1 23.7C30.4 23.7 29.2 24 28.2 25C27.2 26.1 24.4 28.7 24.4 34C24.4 39.3 28.3 44.4 28.8 45.1C29.3 45.8 36.3 57 47.3 61.3C58.3 65.6 58.3 64.2 60.3 64C62.3 63.8 66.7 61.4 67.6 58.9C68.4 56.5 68.4 54.4 68.1 53.9Z" fill="#29B63E"/>
</svg>
